<?xml version="1.0" encoding="UTF-8" standalone="no"?>
<svg
   xmlns:dc="http://purl.org/dc/elements/1.1/"
   xmlns:cc="http://creativecommons.org/ns#"
   xmlns:rdf="http://www.w3.org/1999/02/22-rdf-syntax-ns#"
   xmlns:svg="http://www.w3.org/2000/svg"
   xmlns="http://www.w3.org/2000/svg"
   xmlns:sodipodi="http://sodipodi.sourceforge.net/DTD/sodipodi-0.dtd"
   xmlns:inkscape="http://www.inkscape.org/namespaces/inkscape"
   width="105.83345mm"
   height="80.307892mm"
   viewBox="0 0 105.83345 80.307892"
   version="1.1"
   id="svg362"
   inkscape:version="1.0.2 (e86c870879, 2021-01-15)"
   sodipodi:docname="momo.svg">
  <defs
     id="defs356" />
  <sodipodi:namedview
     id="base"
     pagecolor="#ffffff"
     bordercolor="#666666"
     borderopacity="1.0"
     inkscape:pageopacity="0.0"
     inkscape:pageshadow="2"
     inkscape:zoom="0.35"
     inkscape:cx="300.00022"
     inkscape:cy="251.76294"
     inkscape:document-units="mm"
     inkscape:current-layer="layer1"
     inkscape:document-rotation="0"
     showgrid="false"
     inkscape:window-width="1305"
     inkscape:window-height="741"
     inkscape:window-x="61"
     inkscape:window-y="27"
     inkscape:window-maximized="1" />
  <metadata
     id="metadata359">
    <rdf:RDF>
      <cc:Work
         rdf:about="">
        <dc:format>image/svg+xml</dc:format>
        <dc:type
           rdf:resource="http://purl.org/dc/dcmitype/StillImage" />
        <dc:title></dc:title>
      </cc:Work>
    </rdf:RDF>
  </metadata>
  <g
     inkscape:label="Layer 1"
     inkscape:groupmode="layer"
     id="layer1"
     style="display:inline"
     transform="translate(-26.458275,-81.554388)">
    <g
       id="outline"
       transform="matrix(0.26458333,0,0,0.26458333,1.0583937,106.83093)">
      <path
         d="m 492.485,17.375 c -2.19871,-1.487098 -4.99185,-1.786792 -7.456,-0.8 L 375.934,60.211 c -8.36749,-7.503533 -19.11187,-11.817924 -30.345,-12.185 -11.80351,-20.466956 -36.74339,-29.304073 -58.8,-20.835 -17.81276,-14.921247 -43.76124,-14.921247 -61.574,0 -22.05661,-8.469073 -46.99649,0.368044 -58.8,20.835 -28.32094,0.929351 -49.67508,26.06519 -46.015,54.164 -15.13137,8.46249 -24.47507,24.47315 -24.4,41.81 0.04818,2.84533 0.451291,5.67352 1.2,8.419 3.58959,13.69734 15.33392,23.70718 29.427,25.081 15.68033,1.56667 26.95633,1.21184 47.041,4.7 10.95314,1.09627 21.71789,3.60821 32.025,7.473 15.5958,5.85633 32.09671,8.93619 48.755,9.1 l 2.4,4.794 c 1.8923,3.79042 6.41281,5.44669 10.306,3.776 l 48.37,-20.73 c 7.45341,-2.16362 15.08875,-3.64242 22.811,-4.418 l 47.114,-4.711 C 402.61337,175.89389 415.80206,161.59273 416,144.356 V 144 c 0,-0.145 -0.006,-0.291 -0.008,-0.436 l 75.159,-32.21 c 2.94189,-1.26064 4.84928,-4.15339 4.849,-7.354 V 24 c 1.5e-4,-2.65476 -1.31667,-5.136675 -3.515,-6.625 z M 480,58.748 391.969,96.894 C 391.975,96.594 392,96.294 392,96 392.009,88.075758 390.04328,80.274163 386.281,73.3 L 480,35.816 Z M 211.312,174.7 c -11.60327,-4.35035 -23.72161,-7.17792 -36.052,-8.412 l -47.041,-4.7 c -7.40671,-0.69292 -13.59755,-5.92678 -15.513,-13.115 -0.41556,-1.45692 -0.65263,-2.95892 -0.706,-4.473 -0.0525,-13.20335 8.0561,-25.06678 20.377,-29.813 3.82772,-1.49271 5.90246,-5.64219 4.8,-9.6 C 131.48932,84.191612 146.8264,63.996112 168,64 c 0.788,0 1.646,0.039 2.624,0.118 3.41773,0.280612 6.63338,-1.650955 7.991,-4.8 C 183.67692,47.591331 195.22746,39.997885 208,40 c 5.24184,-0.01693 10.40556,1.27039 15.026,3.746 3.1939,1.702916 7.13329,1.049223 9.606,-1.594 12.63827,-13.536234 34.09773,-13.536234 46.736,0 2.47271,2.643223 6.4121,3.296916 9.606,1.594 4.62044,-2.47561 9.78416,-3.762931 15.026,-3.746 12.77278,-0.0019 24.32339,7.591939 29.385,19.319 1.36199,3.145219 4.5746,5.074955 7.991,4.8 0.978,-0.079 1.836,-0.118 2.624,-0.118 9.03819,-0.0034 17.65424,3.824548 23.71,10.534 0.115,0.147 0.24,0.282 0.364,0.42 7.04685,8.018536 9.60821,19.034047 6.822,29.339 l -21.243,9.2 c -2.47995,-1.77699 -5.75517,-1.98727 -8.442,-0.542 l -13,7 c -1.77857,0.95695 -3.12694,2.55412 -3.772,4.468 l -61.614,26.7 c -10.818,1.741 -21.89634,0.8467 -32.295,-2.607 -4.19157,-1.39728 -8.72222,0.86794 -10.1195,5.0595 -1.39728,4.19157 0.86793,8.72222 5.0595,10.1195 3.4971,1.16066 7.06725,2.08836 10.687,2.777 -0.3406,1.73128 -0.0987,3.52661 0.688,5.106 l 5.425,10.85 c -11.95928,-0.90937 -23.72914,-3.51027 -34.958,-7.725 z m 172.542,-13.123 -12.895,1.29 27.566,-11.814 c -2.63389,5.89731 -8.24051,9.91835 -14.671,10.522 z M 480,98.725 267.782,189.676 258.935,171.976 480,76.186 Z"
         id="path84"
         sodipodi:nodetypes="ccccccccccccccccccccsccccccccccccccccccsccccccccccccccccccccsccccccccccccccc" />
      <path
         d="m 204.8,85.6 -12,-9 a 8,8 0 1 0 -9.6,12.8 l 12,9 a 8,8 0 0 0 9.6,-12.8 z"
         id="path112" />
      <path
         d="M 230.353,78.842 A 8.0003821,8.0003821 0 1 0 244.4,71.18 l -6,-11 a 8,8 0 1 0 -14.046,7.662 z"
         id="path114" />
      <path
         d="m 270.8,82.034 a 7.994,7.994 0 0 0 10.854,-3.192 l 6,-11 A 8.0034549,8.0034549 0 1 0 273.6,60.18 l -6,11 a 8,8 0 0 0 3.2,10.854 z"
         id="path118" />
      <g
         id="g245"
         transform="translate(-452.927,5.4632561)">
        <g
           id="g256"
           transform="matrix(0.63279459,0,0,0.59460654,284.53247,-5.2334414)">
          <g
             id="g152"
             transform="translate(416.72529,-132.15725)">
            <g
               id="g150">
              <path
                 d="m 190.063,89.494 c 14.238,-9.491 22.738,-25.748 22.738,-43.487 0,-17.738 -8.5,-33.994 -22.738,-43.487 -6.895,-4.596 -16.208,-2.733 -20.804,4.161 -4.597,6.894 -2.733,16.208 4.161,20.804 5.872,3.914 9.377,10.838 9.377,18.521 0,7.683 -3.505,14.607 -9.377,18.521 -14.238,9.492 -22.738,25.561 -22.738,42.986 0,17.425 8.5,33.495 22.738,42.986 6.896,4.598 16.21,2.73 20.804,-4.161 4.597,-6.894 2.733,-16.208 -4.161,-20.804 -5.959,-3.973 -9.377,-10.541 -9.377,-18.021 -0.001,-7.477 3.418,-14.046 9.377,-18.019 z"
                 id="path148" />
            </g>
          </g>
          <g
             id="g158"
             transform="translate(421.72591,-161.05186)">
            <g
               id="g156">
              <path
                 d="m 265.072,89.494 c 14.238,-9.491 22.738,-25.748 22.738,-43.487 0,-17.738 -8.5,-33.994 -22.738,-43.487 -6.895,-4.596 -16.208,-2.733 -20.804,4.161 -4.597,6.894 -2.733,16.208 4.161,20.804 5.872,3.914 9.377,10.838 9.377,18.521 0,7.683 -3.505,14.607 -9.377,18.521 -14.238,9.492 -22.738,25.561 -22.738,42.986 0,17.425 8.5,33.495 22.738,42.986 6.896,4.598 16.21,2.73 20.804,-4.161 4.597,-6.894 2.733,-16.208 -4.161,-20.804 -5.959,-3.973 -9.377,-10.541 -9.377,-18.021 0,-7.477 3.418,-14.046 9.377,-18.019 z"
                 id="path154" />
            </g>
          </g>
          <g
             id="g164"
             transform="translate(426.12759,-131.19733)">
            <g
               id="g162">
              <path
                 d="m 340.082,89.494 c 14.238,-9.491 22.738,-25.748 22.738,-43.487 0,-17.738 -8.5,-33.994 -22.738,-43.487 -6.894,-4.596 -16.208,-2.733 -20.804,4.161 -4.597,6.894 -2.733,16.208 4.161,20.804 5.872,3.914 9.377,10.838 9.377,18.521 0,7.683 -3.505,14.607 -9.377,18.521 -14.238,9.492 -22.738,25.561 -22.738,42.986 0,17.425 8.5,33.495 22.738,42.986 6.896,4.598 16.21,2.73 20.804,-4.161 4.597,-6.894 2.733,-16.208 -4.161,-20.804 -5.959,-3.973 -9.377,-10.541 -9.377,-18.021 -10e-4,-7.477 3.418,-14.046 9.377,-18.019 z"
                 id="path160" />
            </g>
          </g>
        </g>
        <g
           id="g178" />
        <g
           id="g180" />
        <g
           id="g182" />
        <g
           id="g184" />
        <g
           id="g186" />
        <g
           id="g188" />
        <g
           id="g190" />
        <g
           id="g192" />
        <g
           id="g194" />
        <g
           id="g196" />
        <g
           id="g198" />
        <g
           id="g200" />
        <g
           id="g202" />
        <g
           id="g204" />
        <g
           id="g206" />
      </g>
    </g>
  </g>
</svg>
